<?xml version="1.0" encoding="UTF-8"?><svg id="Layer_2" xmlns="http://www.w3.org/2000/svg" viewBox="0 0 143.47 143.22"><defs><style>.cls-1{fill:#fff;}</style></defs><g id="Layer_1-2"><g><path class="cls-1" d="M71.56,143.21c17.86,0,35.73,.02,53.59,0,10.37-.02,18.16-7.72,18.23-18.07,.07-11.13,.17-22.27-.04-33.4-.13-6.86-3.19-12.32-9.38-15.64-3.65-1.96-7.44-3.67-11.15-5.52-4.22-2.11-8.59-3.94-11.73-7.75-3.61-4.39-3.55-9.68-3.97-14.87-1.18-14.53-7.07-26.77-18.4-35.97C74.59,.51,58.23-2.34,40.84,1.79,16.62,7.55,.47,28.11,.15,53.73c-.29,23.59-.07,47.19-.06,70.79,0,11.04,7.65,18.68,18.62,18.68,17.62,0,35.23,0,52.85,0Z"/><path d="M71.56,143.21c-17.62,0-35.23,0-52.85,0-10.97,0-18.62-7.65-18.62-18.68-.02-23.6-.23-47.2,.06-70.79C.47,28.11,16.62,7.55,40.84,1.79c17.39-4.13,33.76-1.29,47.89,10.18,11.32,9.2,17.22,21.44,18.4,35.97,.42,5.19,.36,10.48,3.97,14.87,3.14,3.81,7.51,5.65,11.73,7.75,3.71,1.85,7.5,3.56,11.15,5.52,6.19,3.33,9.26,8.78,9.38,15.64,.2,11.13,.11,22.27,.04,33.4-.07,10.35-7.86,18.05-18.23,18.07-17.86,.03-35.73,0-53.59,0Zm.18-17.49c17.12,0,34.24-.04,51.36,.04,2.2,.01,2.89-.7,2.86-2.85-.09-7.31-.07-14.63-.01-21.94,.02-1.87-.57-2.81-2.57-2.66-1.41,.1-2.83,.12-4.24,0-2.16-.19-2.97,.62-2.89,2.83,.13,3.65,.1,7.31-.04,10.97-.11,2.79-1.48,4.1-3.96,4.2-2.39,.09-3.95-1.24-4.2-3.92-.23-2.39-.23-4.81-.24-7.21-.03-7.07,0-7.02-7.03-6.87-1.94,.04-2.65,.72-2.6,2.65,.09,3.82,0,7.65,.03,11.47,.02,2.38-1.35,3.46-3.46,3.81-2.82,.46-4.81-1.47-4.89-4.86-.09-3.57-.1-7.15,0-10.72,.05-1.75-.6-2.36-2.31-2.33-4.32,.07-8.65,.15-12.96-.03-2.44-.1-3.18,.74-3.06,3.12,.18,3.48,.13,6.98,0,10.47-.1,2.91-1.77,4.48-4.33,4.42-2.65-.06-4.06-1.58-4.12-4.57-.05-2.33-.01-4.65-.01-6.98,0-6.46,0-6.36-6.43-6.46-2.43-.04-3.19,.74-3.05,3.13,.19,3.4,.13,6.82,.01,10.22-.11,3.01-1.87,4.76-4.4,4.66-2.76-.1-3.94-1.55-3.94-4.88,0-3.57-.05-7.15,.01-10.72,.03-1.7-.65-2.44-2.36-2.37-1.66,.07-3.33,.07-4.99,0-1.74-.08-2.3,.67-2.28,2.37,.03,3.9,0,7.81-.24,11.7-.17,2.68-1.82,4.01-4.21,3.91-2.46-.1-3.8-1.42-3.96-4.21-.13-2.32-.07-4.65-.07-6.98,0-6.93,0-6.85-6.85-6.83-2.25,0-2.84,.88-2.82,2.95,.08,7.06,.02,14.13,.03,21.19,0,3.28,.02,3.29,3.34,3.29,16.96,0,33.91,0,50.87,0Z"/><path class="cls-1" d="M71.75,125.72H20.88c-3.37-.18-3.33-.01-3.34-3.29-.01-7.06,.05-14.13-.03-21.19-.02-2.08,.57-2.95,2.82-2.95,6.84-.02,7.04-.82,6.85,6.83-.06,2.33-.06,4.66,.07,6.98,.16,2.78,1.5,4.11,3.96,4.21,2.39,.1,4.03-1.23,4.21-3.91,.25-3.89,.27-7.8,.24-11.7-.01-1.71,.54-2.45,2.28-2.37h4.99c1.71-.07,2.39,.67,2.36,2.37-.06,3.57-.02,7.15-.01,10.72,0,3.33,1.18,4.78,3.94,4.88,2.53,.09,4.29-1.65,4.4-4.66,.12-3.4-.08-6.82-.01-10.22,.07-3.15,.62-3.17,3.05-3.13,6.43,.1,6.64-.61,6.43,6.46,0,2.33-.04,4.65,.01,6.98,.06,2.99,1.46,4.51,4.12,4.57,2.56,.06,4.22-1.52,4.33-4.42,.12-3.49,.17-6.99,0-10.47-.12-2.38,.62-3.22,3.06-3.12l12.96,.03c1.71-.03,2.36,.58,2.31,2.33-.1,3.57-.1,7.15,0,10.72,.08,3.39,2.07,5.33,4.89,4.86,2.11-.35,3.48-1.44,3.46-3.81-.03-3.82,.06-7.65-.03-11.47-.05-1.93,.66-2.61,2.6-2.65,7.02-.15,7-.2,7.03,6.87,0,2.41,.01,4.82,.24,7.21,.26,2.68,1.82,4.02,4.2,3.92,2.48-.1,3.85-1.41,3.96-4.2,.14-3.65,.18-7.32,.04-10.97-.08-2.21,.73-3.03,2.89-2.83h4.24c2-.14,2.59,.8,2.57,2.67-.06,7.31-.08,14.63,.01,21.94,.03,2.15-.66,2.86-2.86,2.85l-51.36-.04Z"/></g></g></svg>